<svg id="Capa_1" enable-background="new 0 0 512 512" height="512" viewBox="0 0 512 512" width="512" xmlns="http://www.w3.org/2000/svg"><g><g><g><g><g><g><g fill="#95d6a4"><path d="m10.58 493.457 82.884-82.526.558-3.876c-.119-.706-.182-1.431-.182-2.172v-43.204l-2.311-1.03v-13.392l2.311-1.03v-33.782l-2.311-1.03v-13.392l2.311-1.03v-34.167l-2.311-.645v-13.392l2.311-1.03v-33.781l-2.311-1.03v-13.392l2.311-1.03v-33.782l-2.311-1.03v-13.394l2.311-1.03v-33.781l-2.311-1.03v-13.392l2.311-1.03v-33.782l-2.311-1.03v-13.393l2.311-1.03v-37.545c0-7.333-5.945-13.277-13.277-13.277h-67.286c-7.333 0-13.277 5.944-13.277 13.277v476.059l5.151 4.121z"/><path d="m441.849 419.755-1.03-1.594h-33.781l-1.03 1.594h-13.392l-1.03-1.594h-33.782l-1.03 1.594h-13.392l-1.03-1.594h-33.782l-1.03 1.594h-13.392l-1.03-1.594h-33.782l-1.03 1.594h-13.392l-1.03-1.594h-33.781l-1.03 1.594h-13.393l-1.03-1.594h-33.782l-1.03 1.594h-13.392l-1.03-1.594h-38.299c-.74 0-1.465-.061-2.172-.177l-3.872.046-74.704 75.427h394.221c15.494 0 28.054-12.56 28.054-28.054v-45.648z"/></g><g fill="#78c2a4"><path d="m498.723 418.16h-42.451l-1.03 1.594h-10.547v41.527c0 15.494-12.56 28.054-28.054 28.054h-416.641v9.387c0 7.334 5.944 13.278 13.277 13.278h485.446c7.333 0 13.277-5.944 13.277-13.277v-67.285c0-7.333-5.944-13.278-13.277-13.278z"/><path d="m11.105 511.823 93.84-93.84c-5.592-.921-10.007-5.335-10.928-10.928l-93.84 93.84c.92 5.593 5.335 10.008 10.928 10.928z"/></g></g></g></g><g><g><path d="m403.601 150.003-85.249 49.219c-4.459 2.574-9.953 2.574-14.412 0l-82.77-47.787-11.898 1.115c-1.343 2.321-2.079 4.984-2.079 7.759v102.115c0 5.544 2.958 10.667 7.759 13.439l88.434 51.058c4.801 2.772 10.717 2.772 15.518 0l88.434-51.058c4.801-2.772 7.759-7.895 7.759-13.439v-102.116c0-2.772-.739-5.439-2.079-7.759z" fill="#bed8fb"/><g fill="#9dc6fb"><path d="m311.146 191.099c-4.268 0-7.726 3.459-7.726 7.726v128.114c4.785 2.747 10.668 2.747 15.453 0v-128.114c-.001-4.268-3.46-7.726-7.727-7.726z"/><path d="m318.352 207.205 94.667-54.656c-1.34-2.32-3.279-4.294-5.68-5.68l-88.434-51.058c-4.801-2.772-10.717-2.772-15.518 0l-88.434 51.058c-2.401 1.386-4.34 3.36-5.68 5.68l94.667 54.656c4.459 2.575 9.953 2.575 14.412 0z"/></g></g></g><g><g><path d="m162.961 98.017c-4.268 0-7.726-3.459-7.726-7.726v-21.277c0-7.477 6.082-13.56 13.559-13.56h21.097c4.268 0 7.726 3.459 7.726 7.726s-3.459 7.726-7.726 7.726h-19.203v19.384c-.001 4.268-3.46 7.727-7.727 7.727z" fill="#81a7c6"/></g><g><path d="m459.331 98.017c-4.268 0-7.726-3.459-7.726-7.726v-19.385h-18.848c-4.268 0-7.726-3.459-7.726-7.726s3.459-7.726 7.726-7.726h20.741c7.477 0 13.559 6.083 13.559 13.56v21.277c0 4.267-3.458 7.726-7.726 7.726z" fill="#81a7c6"/></g><g><path d="m453.498 367.278h-20.741c-4.268 0-7.726-3.459-7.726-7.726s3.459-7.726 7.726-7.726h18.848v-18.669c0-4.268 3.459-7.726 7.726-7.726s7.726 3.459 7.726 7.726v20.561c0 7.476-6.082 13.56-13.559 13.56z" fill="#81a7c6"/></g><g><path d="m189.89 367.278h-21.097c-7.477 0-13.559-6.084-13.559-13.56v-20.561c0-4.268 3.459-7.726 7.726-7.726 4.268 0 7.726 3.459 7.726 7.726v18.669h19.203c4.268 0 7.726 3.459 7.726 7.726s-3.457 7.726-7.725 7.726z" fill="#81a7c6"/></g></g></g></g><g fill="#f2f9ff"><g><path d="m62.326 107.783c0 4.268 3.459 7.726 7.726 7.726h23.788v-15.453h-23.788c-4.267 0-7.726 3.459-7.726 7.727z"/><path d="m52.196 157.016c0 4.268 3.459 7.726 7.726 7.726h33.918v-15.452h-33.917c-4.268 0-7.727 3.458-7.727 7.726z"/><path d="m62.326 206.251c0 4.268 3.459 7.726 7.726 7.726h23.788v-15.453h-23.788c-4.267 0-7.726 3.459-7.726 7.727z"/><path d="m59.923 361.679h33.917v-15.453h-33.917c-4.268 0-7.726 3.459-7.726 7.726s3.458 7.727 7.726 7.727z"/><path d="m52.196 58.548c0 4.268 3.459 7.726 7.726 7.726h33.918v-15.452h-33.917c-4.268 0-7.727 3.459-7.727 7.726z"/><path d="m59.923 263.21h33.917v-15.453h-33.917c-4.268 0-7.726 3.459-7.726 7.726-.001 4.268 3.458 7.727 7.726 7.727z"/><path d="m70.052 312.445h23.788v-15.453h-23.788c-4.268 0-7.726 3.459-7.726 7.726 0 4.268 3.459 7.727 7.726 7.727z"/></g><g><path d="m202.376 449.69c4.268 0 7.726-3.459 7.726-7.726v-23.804h-15.452v23.803c0 4.268 3.459 7.727 7.726 7.727z"/><path d="m440.819 418.16v33.933c0 4.268 3.459 7.726 7.726 7.726 4.268 0 7.726-3.459 7.726-7.726v-33.933z"/><path d="m251.61 459.82c4.268 0 7.726-3.459 7.726-7.726v-33.934h-15.453v33.933c0 4.268 3.459 7.727 7.727 7.727z"/><path d="m153.142 459.82c4.268 0 7.726-3.459 7.726-7.726v-33.934h-15.453v33.933c0 4.268 3.459 7.727 7.727 7.727z"/><path d="m399.312 449.69c4.268 0 7.726-3.459 7.726-7.726v-23.804h-15.453v23.803c.001 4.268 3.459 7.727 7.727 7.727z"/><path d="m300.844 449.69c4.268 0 7.726-3.459 7.726-7.726v-23.804h-15.453v23.803c.001 4.268 3.459 7.727 7.727 7.727z"/><path d="m350.077 459.82c4.268 0 7.726-3.459 7.726-7.726v-33.934h-15.453v33.933c.001 4.268 3.46 7.727 7.727 7.727z"/></g></g></g></svg>