<svg id="Capa_1" enable-background="new 0 0 512 512" height="512" viewBox="0 0 512 512" width="512" xmlns="http://www.w3.org/2000/svg"><path d="m300.527 229.222-6.841-2.649c-1.011-.391-1.94-1.08-2.646-2.008-.787-1.035-1.255-2.311-1.258-3.674l-.019-22.139c-21.478 14.053-48.652 12.15-67.581-.092v22.194c0 1.619-.506 2.805-1.233 3.703-1.374 1.694-3.551 2.337-4.715 2.788-.976.378-2.608 1.011-4.748 1.841 12.375 8.594 27.85 16.874 45.608 16.874 16.151-.001 31.133-8.182 43.433-16.838z" fill="#fed2a4"/><path d="m242.839 240.855c1.164-.626 3.34-1.521 4.714-3.876.728-1.248 1.234-2.897 1.234-5.149v-23.704c-9.617-1.143-18.81-4.425-26.605-9.466v22.194c0 1.619-.505 2.805-1.233 3.703-1.374 1.694-3.551 2.337-4.714 2.788-.976.378-2.608 1.011-4.748 1.841 7.861 5.459 16.976 10.783 27.13 13.946 1.879-1.014 3.328-1.795 4.222-2.277z" fill="#ffbd86"/><path d="m257.274 272.156c26.681 0 50.625-15.018 66.79-33.819l-22.122-8.568-1.415-.548c-12.3 8.656-27.282 13.746-43.432 13.746-17.758 0-33.233-5.19-45.608-13.783-5.378 2.085-13.986 5.422-23.595 9.148 15.909 18.496 39.953 33.824 69.382 33.824z" fill="#23a8fe"/><path d="m328.164 104.104c-1.854 1.277-4.094 2.03-6.503 2.03-1.555 0-4.104-.167-5.57-.478v44.716c0 .528-.026 1.049-.04 1.573 15.475 1.814 29.382-9.484 29.382-23.307.001-10.62-7.047-21.616-17.269-24.534z" fill="#fed2a4"/><path d="m195.909 150.373v-44.238h-8.56c-1.911 0-3.748-.306-5.475-.859-8.624 3.66-15.308 13.581-15.308 23.364 0 13.805 13.882 25.123 29.381 23.306-.013-.525-.038-1.048-.038-1.573z" fill="#fed2a4"/><path d="m316.091 130.993v19.38c0 .528-.026 1.049-.04 1.573 15.475 1.814 29.382-9.484 29.382-23.307 0-3.77-.902-7.58-2.505-11.066-4.676 8.823-15.317 14.754-26.837 13.42z" fill="#ffbd86"/><path d="m195.909 130.992c-11.436 1.325-21.979-4.501-26.713-13.194-1.665 3.401-2.63 7.13-2.63 10.841 0 13.805 13.882 25.123 29.381 23.306-.014-.524-.038-1.047-.038-1.572z" fill="#ffbd86"/><path d="m299.689 83.132c0-1.178-1.576-1.583-2.132-.545-7.163 13.398-21.28 22.517-37.535 22.517h-65.143v45.268c0 31.489 24.673 60.249 61.993 60.249 33.222 0 60.249-27.028 60.249-60.249v-45.746c-9.925-2.106-17.432-10.965-17.432-21.494z" fill="#fed2a4"/><path d="m223.191 150.373v-45.269h-28.312v45.269c0 31.489 24.672 60.248 61.993 60.248 4.702 0 9.274-.559 13.669-1.583-28.989-6.4-47.35-31.509-47.35-58.665z" fill="#ffbd86"/><path d="m379.054 259.634-54.99-21.296c-16.164 18.801-40.109 30.728-66.789 30.728-29.43 0-53.474-12.238-69.383-30.733l-54.944 21.301c-14.126 5.813-33.041 24.105-33.041 51.248v98.136c0 6.417 5.202 11.618 11.618 11.618h288.951c6.417 0 11.618-5.202 11.618-11.618v-98.136c0-23.375-14.966-43.809-33.04-51.248z" fill="#60b8fe"/><path d="m132.947 259.634c-14.126 5.813-33.041 24.105-33.041 51.248v98.136c0 6.417 5.202 11.618 11.618 11.618h19.815v-125.13c0-19.18 9.445-33.932 19.971-42.993z" fill="#23a8fe"/><path d="m313.207 27.856c-5.757.443-11.039-3.177-12.147-8.843-1.866-9.543-6.59-19.013-25.046-19.013h-64.031c-23.5 0-42.55 19.05-42.55 42.55v46.698c0 9.895 8.021 17.916 17.916 17.916h72.673c16.255 0 30.372-9.119 37.535-22.517.555-1.039 2.132-.633 2.132.545 0 12.085 9.888 21.972 21.972 21.972 6.335 0 11.517-5.183 11.517-11.517v-48.731c.001-11.481-10.016-19.825-19.971-19.06z" fill="#695d67"/><path d="m204.027 89.249v-46.699c0-23.5 19.05-42.55 42.55-42.55h-34.594c-23.5 0-42.55 19.05-42.55 42.55v46.698c0 9.895 8.021 17.916 17.916 17.916h34.594c-9.895 0-17.916-8.021-17.916-17.915z" fill="#544e55"/><path d="m151.767 392.01c-4.267 0-7.726-3.459-7.726-7.726v-63.185c0-4.268 3.459-7.726 7.726-7.726s7.726 3.459 7.726 7.726v63.185c0 4.267-3.459 7.726-7.726 7.726z" fill="#23a8fe"/><path d="m361.013 392.01c-4.267 0-7.726-3.459-7.726-7.726v-63.185c0-4.268 3.459-7.726 7.726-7.726s7.726 3.459 7.726 7.726v63.185c0 4.267-3.459 7.726-7.726 7.726z" fill="#23a8fe"/><path d="m202.82 389.381c2.499-2.436 1.12-6.68-2.334-7.182l-20.498-2.979c-1.371-.199-2.557-1.06-3.17-2.303l-9.167-18.574c-1.545-3.13-6.007-3.13-7.551 0l-9.167 18.574c-.613 1.243-1.799 2.104-3.17 2.303l-20.498 2.979c-3.454.502-4.833 4.746-2.334 7.182l14.833 14.458c.993.967 1.445 2.361 1.211 3.727l-3.502 20.416c-.59 3.439 3.02 6.063 6.109 4.438l18.334-9.639c1.227-.645 2.692-.645 3.918 0l18.334 9.639c3.089 1.624 6.699-.999 6.109-4.438l-3.502-20.416c-.234-1.366.219-2.76 1.211-3.727z" fill="#fee55a"/><path d="m161.234 414.091c.234-1.366-.218-2.76-1.211-3.727l-14.833-14.458c-2.499-2.436-1.12-6.68 2.334-7.182l20.498-2.979c1.371-.199 2.557-1.06 3.17-2.303l4.423-8.961-7.965-16.138c-1.545-3.13-6.007-3.13-7.552 0l-9.167 18.574c-.613 1.243-1.799 2.104-3.17 2.303l-20.498 2.979c-3.453.502-4.832 4.746-2.334 7.182l14.832 14.458c.993.967 1.445 2.361 1.211 3.727l-3.502 20.416c-.59 3.44 3.02 6.063 6.109 4.439l15.947-8.384z" fill="#ffd301"/><path d="m294.945 389.381c2.499-2.436 1.12-6.68-2.334-7.182l-20.498-2.979c-1.371-.199-2.557-1.06-3.17-2.303l-9.167-18.574c-1.545-3.13-6.007-3.13-7.551 0l-9.167 18.574c-.613 1.243-1.799 2.104-3.17 2.303l-20.498 2.979c-3.454.502-4.833 4.746-2.334 7.182l14.833 14.458c.993.967 1.445 2.361 1.211 3.727l-3.502 20.416c-.59 3.439 3.02 6.063 6.109 4.438l18.334-9.639c1.227-.645 2.692-.645 3.918 0l18.334 9.639c3.089 1.624 6.699-.999 6.109-4.438l-3.502-20.416c-.234-1.366.219-2.76 1.211-3.727z" fill="#fee55a"/><path d="m253.359 414.091c.234-1.366-.218-2.76-1.211-3.727l-14.833-14.458c-2.499-2.436-1.12-6.68 2.334-7.182l20.498-2.979c1.371-.199 2.557-1.06 3.17-2.303l4.423-8.961-7.965-16.138c-1.545-3.13-6.007-3.13-7.552 0l-9.167 18.574c-.613 1.243-1.799 2.104-3.17 2.303l-20.498 2.979c-3.453.502-4.832 4.746-2.333 7.182l14.832 14.458c.993.967 1.445 2.361 1.211 3.727l-3.502 20.416c-.59 3.44 3.02 6.063 6.109 4.439l15.947-8.384z" fill="#ffd301"/><path d="m387.114 389.381c2.499-2.436 1.12-6.68-2.334-7.182l-20.498-2.979c-1.371-.199-2.557-1.06-3.17-2.303l-9.167-18.574c-1.544-3.13-6.007-3.13-7.551 0l-9.167 18.574c-.613 1.243-1.799 2.104-3.17 2.303l-20.498 2.979c-3.454.502-4.833 4.746-2.334 7.182l14.833 14.458c.993.967 1.445 2.361 1.211 3.727l-3.502 20.416c-.59 3.439 3.02 6.063 6.109 4.438l18.334-9.639c1.227-.645 2.692-.645 3.918 0l18.334 9.639c3.089 1.624 6.699-.999 6.109-4.438l-3.502-20.416c-.234-1.366.219-2.76 1.211-3.727z" fill="#fee55a"/><path d="m345.528 414.091c.234-1.366-.218-2.76-1.211-3.727l-14.833-14.458c-2.499-2.436-1.12-6.68 2.334-7.182l20.498-2.979c1.371-.199 2.557-1.06 3.17-2.303l4.423-8.961-7.965-16.138c-1.544-3.13-6.007-3.13-7.552 0l-9.167 18.574c-.613 1.243-1.799 2.104-3.17 2.303l-20.498 2.979c-3.453.502-4.832 4.746-2.333 7.182l14.832 14.458c.993.967 1.445 2.361 1.211 3.727l-3.502 20.416c-.59 3.44 3.02 6.063 6.109 4.439l15.947-8.384z" fill="#ffd301"/><path d="m248.86 468.468c2.499-2.436 1.12-6.68-2.334-7.182l-20.498-2.979c-1.371-.199-2.557-1.06-3.17-2.303l-9.167-18.574c-1.545-3.13-6.007-3.13-7.551 0l-9.167 18.574c-.613 1.243-1.799 2.104-3.17 2.303l-20.498 2.979c-3.454.502-4.833 4.746-2.334 7.182l14.833 14.458c.993.967 1.445 2.361 1.211 3.727l-3.502 20.416c-.59 3.439 3.02 6.063 6.109 4.438l18.334-9.639c1.227-.645 2.692-.645 3.918 0l18.334 9.639c3.089 1.624 6.699-.999 6.109-4.438l-3.502-20.416c-.234-1.366.219-2.76 1.211-3.727z" fill="#fee55a"/><path d="m207.275 493.177c.234-1.366-.218-2.76-1.211-3.727l-14.833-14.458c-2.499-2.436-1.12-6.68 2.334-7.182l20.498-2.979c1.371-.199 2.557-1.06 3.17-2.303l4.423-8.961-7.965-16.138c-1.545-3.13-6.007-3.13-7.552 0l-9.167 18.574c-.613 1.243-1.799 2.104-3.17 2.303l-20.498 2.979c-3.453.502-4.832 4.746-2.333 7.182l14.833 14.458c.993.967 1.445 2.361 1.211 3.727l-3.502 20.416c-.59 3.44 3.02 6.062 6.109 4.439l15.947-8.384z" fill="#ffd301"/><path d="m341.029 468.468c2.499-2.436 1.12-6.68-2.334-7.182l-20.498-2.979c-1.371-.199-2.557-1.06-3.17-2.303l-9.167-18.574c-1.544-3.13-6.007-3.13-7.551 0l-9.167 18.574c-.613 1.243-1.799 2.104-3.17 2.303l-20.498 2.979c-3.454.502-4.833 4.746-2.334 7.182l14.833 14.458c.993.967 1.445 2.361 1.211 3.727l-3.502 20.416c-.59 3.439 3.02 6.063 6.109 4.438l18.334-9.639c1.227-.645 2.692-.645 3.918 0l18.334 9.639c3.089 1.624 6.699-.999 6.109-4.438l-3.502-20.416c-.234-1.366.219-2.76 1.211-3.727z" fill="#fee55a"/><path d="m299.443 493.177c.234-1.366-.218-2.76-1.211-3.727l-14.832-14.458c-2.499-2.436-1.12-6.68 2.334-7.182l20.498-2.979c1.371-.199 2.557-1.06 3.17-2.303l4.423-8.961-7.965-16.138c-1.545-3.13-6.007-3.13-7.552 0l-9.167 18.574c-.613 1.243-1.799 2.104-3.17 2.303l-20.498 2.979c-3.453.502-4.832 4.746-2.333 7.182l14.832 14.458c.993.967 1.445 2.361 1.211 3.727l-3.502 20.416c-.59 3.44 3.02 6.062 6.109 4.439l15.947-8.384z" fill="#ffd301"/></svg>