<svg xmlns="http://www.w3.org/2000/svg" version="1.1" xmlns:xlink="http://www.w3.org/1999/xlink" width="512" height="512" x="0" y="0" viewBox="0 0 68 68" style="enable-background:new 0 0 512 512" xml:space="preserve" class=""><g><path d="M63.72 15.665V56.11c0 .996-.814 1.809-1.81 1.809h-2.378L30.397 28.774a3.428 3.428 0 0 0-2.449-1.016 3.483 3.483 0 0 0-3.485 3.475V57.92H11.75c-2.734 0-5.162-2.002-5.416-4.715a5.218 5.218 0 0 1 5.192-5.711 5.21 5.21 0 0 1 5.214 5.213v-38.85h45.17c.996 0 1.81.813 1.81 1.809z" fill="#ffffff" opacity="1" data-original="#000000" class=""></path><path d="M26.495 31.232v32.825c0 .797.646 1.443 1.443 1.443h32.816c1.286 0 1.93-1.554 1.02-2.463L28.96 30.212c-.91-.91-2.464-.266-2.464 1.02zm6.697 27.561V43.926L48.06 58.793zM14.707 13.338v32.854a7.275 7.275 0 0 0-3.18-.732c-3.811 0-6.951 2.968-7.216 6.707-.02.183-.03.356-.03.539V13.338a5.217 5.217 0 0 1 5.213-5.213 5.217 5.217 0 0 1 5.213 5.213zM32.338 2.505h18.973v8.841H32.338zM30.304 11.345l-6.975-3.614a.91.91 0 0 1 0-1.616L30.303 2.5zM56.64 11.345h-3.295V2.5h3.295c2.104 2.948 2.104 5.897 0 8.845z" fill="#ffffff" opacity="1" data-original="#000000" class=""></path></g></svg>