<svg xmlns="http://www.w3.org/2000/svg" version="1.1" xmlns:xlink="http://www.w3.org/1999/xlink" width="512" height="512" x="0" y="0" viewBox="0 0 512 512" style="enable-background:new 0 0 512 512" xml:space="preserve" class=""><g><path d="M458.329 48.235h-26.333M383.032 48.235h-26.333M307.736 48.235h-26.333M232.439 48.235h-26.333M157.143 48.235H130.81M81.846 48.235H11M48.235 458.329v-26.333M48.235 383.032v-26.333M48.235 307.736v-26.333M48.235 232.439v-26.333M48.235 157.143V130.81M48.235 81.846V11" style="stroke-width:22;stroke-linecap:round;stroke-linejoin:round;stroke-miterlimit:10;" fill="none" stroke="#cf941b" stroke-width="22" stroke-linecap="round" stroke-linejoin="round" stroke-miterlimit="10" data-original="#33cccc" opacity="1"></path><path d="M11 501h490V11L11 501zm406.023-83.978H213.741L417.023 213.74v203.282zM210.523 328.886l-11.932-11.933M249.978 289.431l-11.933-11.932M289.433 249.977 277.5 238.044M328.887 210.522l-11.932-11.933M368.327 171.082l-11.932-11.933M407.782 131.627l-11.933-11.932M447.237 92.173 435.304 80.24M92.159 447.25l-11.932-11.933M131.614 407.795l-11.933-11.932M171.069 368.341l-11.933-11.933" style="stroke-width:22;stroke-linecap:round;stroke-linejoin:round;stroke-miterlimit:10;" fill="none" stroke="#000000" stroke-width="22" stroke-linecap="round" stroke-linejoin="round" stroke-miterlimit="10" data-original="#000000" class=""></path></g></svg>