<svg xmlns="http://www.w3.org/2000/svg" version="1.1" xmlns:xlink="http://www.w3.org/1999/xlink" width="512" height="512" x="0" y="0" viewBox="0 0 512 512" style="enable-background:new 0 0 512 512" xml:space="preserve" fill-rule="evenodd" class=""><g><path fill="#000000" d="M64 464c-13 0-24-10-24-24 0-13 11-24 24-24s24 11 24 24c0 14-11 24-24 24zm0-34c-6 0-10 5-10 10 0 6 4 10 10 10 5 0 10-4 10-10 0-5-5-10-10-10z" opacity="1" data-original="#d50060" class=""></path><path fill="#000000" d="M51 63H7c-4 0-7-3-7-7 0-3 3-7 7-7h44c4 0 7 4 7 7 0 4-3 7-7 7zM81 105H7c-4 0-7-3-7-7s3-7 7-7h74c4 0 7 3 7 7s-3 7-7 7zM51 147H7c-4 0-7-3-7-7s3-7 7-7h44c4 0 7 3 7 7s-3 7-7 7zM81 189H7c-4 0-7-3-7-7s3-7 7-7h74c4 0 7 3 7 7s-3 7-7 7zM51 231H7c-4 0-7-3-7-7s3-7 7-7h44c4 0 7 3 7 7s-3 7-7 7zM81 273H7c-4 0-7-3-7-7s3-7 7-7h74c4 0 7 3 7 7s-3 7-7 7zM51 315H7c-4 0-7-3-7-7s3-7 7-7h44c4 0 7 3 7 7s-3 7-7 7zM51 357H7c-4 0-7-3-7-7s3-7 7-7h44c4 0 7 3 7 7s-3 7-7 7zM81 399H7c-4 0-7-4-7-7 0-4 3-7 7-7h74c4 0 7 3 7 7 0 3-3 7-7 7zM121 496c-4 0-7-3-7-7v-45c0-3 3-7 7-7s7 4 7 7v45c0 4-3 7-7 7zM163 496c-4 0-7-3-7-7v-75c0-3 3-7 7-7s7 4 7 7v75c0 4-3 7-7 7zM205 496c-4 0-7-3-7-7v-45c0-3 3-7 7-7s7 4 7 7v45c0 4-3 7-7 7zM247 496c-4 0-7-3-7-7v-75c0-3 3-7 7-7s7 4 7 7v75c0 4-3 7-7 7zM289 496c-4 0-7-3-7-7v-45c0-3 3-7 7-7 3 0 7 4 7 7v45c0 4-4 7-7 7zM331 496c-4 0-7-3-7-7v-75c0-3 3-7 7-7 3 0 7 4 7 7v75c0 4-4 7-7 7zM373 496c-4 0-7-3-7-7v-45c0-3 3-7 7-7 3 0 7 4 7 7v45c0 4-4 7-7 7zM415 496c-4 0-7-3-7-7v-45c0-3 3-7 7-7 3 0 7 4 7 7v45c0 4-4 7-7 7zM457 496c-4 0-7-3-7-7v-75c0-3 3-7 7-7 3 0 7 4 7 7v75c0 4-4 7-7 7z" opacity="1" data-original="#336666" class=""></path><path fill="#000000" d="M505 496H7c-4 0-7-3-7-7V23c0-4 3-7 7-7h140c4 0 7 3 7 7v320h351c4 0 7 3 7 7v139c0 4-3 7-7 7zM14 482h484V357H147c-4 0-7-4-7-7V30H14z" opacity="1" data-original="#d50060" class=""></path></g></svg>