<svg clip-rule="evenodd" fill-rule="evenodd" height="512" image-rendering="optimizeQuality" shape-rendering="geometricPrecision" text-rendering="geometricPrecision" viewBox="0 0 43.3492 43.3492" width="512" xmlns="http://www.w3.org/2000/svg"><g id="Layer_x0020_1"><g id="_350827224"><path id="_350828352" d="m21.6747.76c-11.5319 0-20.9142 9.3822-20.9142 20.9143.0001 11.5322 9.3822 20.9147 20.9141 20.9147 11.5321 0 20.9142-9.3825 20.9142-20.9147.0001-11.5322-9.3822-20.9142-20.9141-20.9143zm0 42.5894c-5.7898 0-11.233-2.2546-15.3265-6.3487-4.0936-4.0939-6.3482-9.5368-6.3482-15.3264s2.2546-11.2325 6.3482-15.3263c4.0936-4.0939 9.5367-6.3484 15.3264-6.3484 5.7897-.0001 11.2329 2.2546 15.3264 6.3484 4.0936 4.0938 6.3482 9.5368 6.3482 15.3263.0001 5.7895-2.2547 11.2327-6.3482 15.3264-4.0933 4.094-9.5367 6.3488-15.3263 6.3487z"/><path id="_350828016" d="m41.0511 22.0651c-.0704 0-.1417-.0051-.213-.0161-.7842-.1204-1.3903-.8961-1.8002-2.3061-.3464-1.1895-.8437-1.946-1.4794-2.2486-.5565-.2649-1.1288-.1283-1.512.033-.1375.0737-.5328.5952-.8506 1.0142-.9505 1.2537-2.2339 2.9471-3.6054 2.9473-.0742 0-.1495-.005-.2237-.0152-.8268-.1135-1.4884-.8265-2.022-2.18-1.1506-2.9169-5.5591-9.6513-9.1397-8.242l-6.3254 2.4891c-.0138.0052-.0277.0098-.0416.0135-2.3755.6343-3.3528-.1397-3.7539-.9005-.8573-1.6239.2961-4.5341 1.5022-5.5733 2.5064-2.1574 4.9956-4.4065 7.4028-6.5816l.3308-.299c.1555-.1407.396-.1285.5366.0273.1416.1559.1287.3963-.0268.5371l-.3307.2989c-2.4111 2.178-4.9035 4.4303-7.4157 6.5936-.9773.8411-1.9824 3.4014-1.3269 4.6419.4914.9294 1.824.8011 2.8647.5263l6.3048-2.4809c1.8367-.7229 3.9904.175 6.2283 2.5965 1.8102 1.9587 3.2617 4.462 3.8984 6.074.418 1.06.8952 1.634 1.417 1.7057 1.012.1399 2.2815-1.532 3.1202-2.638.5763-.7604.8664-1.1313 1.1615-1.2557.5259-.2218 1.3229-.4048 2.1339-.0188.8399.3999 1.4734 1.3159 1.8824 2.7227.3109 1.0694.7317 1.6968 1.1842 1.7668.6418.0985 1.4329-.8432 1.6587-1.1812.1169-.1743.3535-.2212.5277-.1048.1745.1164.2219.3521.105.5268-.1088.1644-1.0516 1.5272-2.1922 1.5271z"/><path id="_350827776" d="m20.0459 43.288c-.0299 0-.0606-.0039-.0903-.0108-.2038-.0505-.3288-.2565-.2792-.4604.3893-1.5864.2396-2.1161-.6952-2.4647-2.1042-.7833-2.9558-1.3922-2.9399-2.1016.0198-.891 1.3735-1.3281 3.2459-1.9334 1.2813-.414 2.734-.8832 3.544-1.4969 2.8401-2.1526 3.1894-3.3517 2.9815-3.9787-.4286-1.2951-3.644-1.6154-4.7362-1.6255-.0049-.0001-.0099-.0002-.0149-.0006-2.7685-.1341-3.1795-2.0046-3.5092-3.5077-.1326-.6054-.2575-1.1771-.5149-1.5765-.803-1.2488-1.5309-1.8634-2.1052-1.7784-.6199.092-1.2279 1.0336-1.6675 2.583-.2406.8499-.3753 1.5514-.4942 2.1701-.2622 1.3736-.4703 2.4586-1.6071 4.0858-.5395.7726-.6981 1.5347-.3951 1.8968.2656.3158 1.019.4343 2.3409-.1808 1.638-.7628 2.2329.1643 2.3755.4666.4941 1.0428-.1238 2.9047-1.5487 3.5912-.502.2421-1.1377.4514-1.8873.6221-.9228.2101-1.5922.8064-2.0448 1.8229-.086.1918-.3109.2782-.503.1923-.191-.0856-.2773-.3103-.1921-.5021.5507-1.2328 1.415-1.9914 2.5715-2.2547.6942-.158 1.2745-.3482 1.726-.5656 1.0855-.5227 1.4972-1.9354 1.1912-2.5806-.2365-.5006-.8744-.3322-1.3675-.1027-1.4742.6865-2.6567.6793-3.2439-.0197-.5445-.6489-.409-1.7298.3535-2.8212 1.0439-1.4941 1.2289-2.4586 1.4844-3.7934.1218-.6342.2594-1.3528.5089-2.2347.3773-1.3277 1.0803-2.948 2.2874-3.1275.917-.1363 1.8517.5569 2.8567 2.1192.3308.5143.4704 1.1509.6179 1.825.317 1.441.6149 2.8022 2.7964 2.9108.5218.0054 4.7698.1133 5.4431 2.147.421 1.2723-.6406 2.8502-3.2449 4.8238-.912.6914-2.4299 1.1818-3.7687 1.6144-.7753.2503-1.5071.4871-2.0329.7311-.6743.3127-.6862.4936-.6862.4953.0002.0187.0178.4686 2.4448 1.3727 1.6844.627 1.5012 2.0025 1.1684 3.3581-.0425.1732-.198.2901-.3691.29z"/><path id="_350827968" d="m30.3193 41.5225c-.1654 0-.318-.1079-.3656-.2742-.7217-2.4995-.2881-4.6372 1.3249-6.5356 1.3517-1.5913 3.2598-2.702 4.9442-3.682 2.0022-1.1655 3.2261-1.9269 2.9448-2.7258-.2277-.3153-.9743-1.446-.5119-2.1483.4536-.6896 1.6645-.3993 2.0626-.3041.0051.0011.0089.0024.0139.0037l1.7408.4875c.2021.0567.3198.2665.2633.4687-.0563.2022-.2664.3201-.4683.2636l-1.7337-.4856c-1.0706-.2556-1.237-.0256-1.2439-.0156-.1217.1854.1782.8613.5188 1.3188.019.0254.0347.0532.0466.0823.6052 1.4679-1.1813 2.5079-3.2509 3.7121-3.2872 1.9133-7.379 4.2945-5.9204 9.3494.0576.2009-.0584.4119-.2604.4703-.0347.0099-.0703.0149-.1048.0148z"/><path id="_350827872" d="m2.2725 27.1084c-.4991 0-.9793-.0615-1.4319-.1869-.2028-.056-.3208-.2654-.2653-.4678.0565-.2024.2653-.3209.4683-.265 1.4755.4085 3.3222.0285 5.0669-1.0425 1.2883-.7905 2.0745-1.8074 2.1557-2.79.0655-.78-.3089-1.5296-1.111-2.2278-1.207-1.0517-1.0714-2.9053-.9526-4.5408.0149-.2034.0297-.4035.0416-.5982.0199-.3228-.4199-1.1366-3.5786-2.9603-.1821-.1049-.2446-.3374-.1397-.5193.1051-.1819.3377-.2443.5199-.1393 1.9963 1.1526 4.0282 2.4894 3.9579 3.6645-.0117.1979-.0267.4013-.0426.6081-.1059 1.4576-.2268 3.1098.6941 3.9118 1.2388 1.0786 1.4279 2.153 1.3695 2.8644-.102 1.2263-1.0189 2.4566-2.5161 3.3751-1.405.8623-2.8865 1.3141-4.2361 1.314z"/><g fill="#a5d6a7"><path id="_350828328" d="m1.2632 26.2431c1.4367.3152 3.188-.0784 4.8473-1.0969 1.2883-.7906 2.0745-1.8074 2.1557-2.79.0655-.78-.3089-1.5296-1.111-2.2278-1.207-1.0517-1.0714-2.9053-.9526-4.5408.015-.2034.0297-.4035.0416-.5982.0192-.3105-.387-1.0753-3.2291-2.7561-1.4416 2.8377-2.2546 6.0462-2.2546 9.441 0 1.5688.1736 3.0978.5027 4.5688z"/><path id="_350827584" d="m12.7706 27.1059c-.2622 1.3736-.4703 2.4586-1.6071 4.0858-.5395.7726-.6981 1.5347-.3951 1.8967.2656.3159 1.019.4344 2.3409-.1807 1.638-.7628 2.2329.1643 2.3755.4666.4941 1.0428-.1238 2.9047-1.5487 3.5912-.5019.2421-1.1377.4514-1.8873.6221-.8303.189-1.4555.6907-1.9021 1.5298 2.803 1.8588 6.0778 3.0606 9.6029 3.3838.2915-1.3435.1015-1.8247-.7684-2.149-2.1042-.7834-2.9558-1.3923-2.9399-2.1017.0198-.891 1.3735-1.3281 3.2459-1.9334 1.2814-.414 2.734-.8832 3.544-1.4969 2.8401-2.1526 3.1894-3.3517 2.9815-3.9787-.4286-1.2951-3.644-1.6154-4.7362-1.6255l-.0149-.0005c-2.7685-.1342-3.1795-2.0047-3.5092-3.5078-.1326-.6054-.2575-1.1771-.5149-1.5765-.803-1.2488-1.5309-1.8635-2.1052-1.7784-.6199.0921-1.2279 1.0336-1.6675 2.583-.2406.8499-.3753 1.5514-.4942 2.1701z"/><path id="_350827104" d="m19.926 10.344c1.8367-.7229 3.9904.175 6.2283 2.5965 1.8102 1.9587 3.2617 4.462 3.8984 6.074.418 1.06.8952 1.634 1.417 1.7057 1.012.1399 2.2815-1.532 3.1202-2.638.5763-.7603.8664-1.1313 1.1615-1.2557.5259-.2218 1.323-.4048 2.1339-.0189.8399.4 1.4734 1.316 1.8824 2.7228.3109 1.0694.7318 1.6968 1.1843 1.7668.5854.0899 1.2952-.6861 1.5866-1.0794-.7502-10.8554-9.8216-19.4578-20.8639-19.4578-.6536 0-1.3003.0301-1.9388.0891l-.2368.214c-2.4111 2.178-4.9035 4.4303-7.4157 6.5937-.9773.841-1.9824 3.4013-1.3269 4.6418.4913.9294 1.824.8011 2.8648.5263z"/></g><path id="_350827008" d="m29.3448 19.2936c-1.1506-2.9169-5.5591-9.6513-9.1397-8.242l-6.3254 2.4891c-.0138.0052-.0277.0098-.0416.0135-2.3755.6343-3.3528-.1397-3.7539-.9005-.8573-1.6239.2961-4.5341 1.5022-5.5733 2.3094-1.9878 4.6043-4.0536 6.8338-6.0675-6.4784 1.0165-11.9798 5.0179-15.0478 10.5478 1.8851 1.1077 3.6978 2.3633 3.6313 3.4743-.0117.1979-.0267.4013-.0426.6081-.1059 1.4576-.2268 3.1098.6941 3.9118 1.2388 1.0786 1.4279 2.153 1.3695 2.8644-.102 1.2263-1.0189 2.4566-2.5161 3.3751-1.405.8623-2.8865 1.3141-4.2361 1.314-.2768 0-.5478-.0189-.8114-.0571 1.2648 4.7507 4.1641 8.842 8.0563 11.6321.5507-.988 1.3432-1.6052 2.3631-1.8374.6941-.158 1.2744-.3483 1.7259-.5656 1.0855-.5226 1.4972-1.9353 1.1912-2.5806-.2365-.5006-.8744-.3322-1.3675-.1027-1.4742.6865-2.6567.6793-3.2439-.0197-.5445-.6488-.409-1.7298.3535-2.8212 1.0439-1.4941 1.2289-2.4586 1.4844-3.7934.1218-.6341.2594-1.3528.5089-2.2347.3773-1.3277 1.0803-2.948 2.2874-3.1275.917-.1363 1.8517.5569 2.8568 2.1192.3307.5143.4703 1.1509.6178 1.825.3169 1.441.6149 2.8022 2.7964 2.9108.5218.0054 4.7698.1133 5.4431 2.147.4209 1.2723-.6406 2.8502-3.2449 4.8238-.912.6914-2.4299 1.1818-3.7687 1.6144-.7753.2503-1.5071.4871-2.0329.7311-.6743.3127-.6862.4936-.6862.4954.0002.0186.0178.4685 2.4449 1.3726 1.5017.559 1.5188 1.713 1.2691 2.9174.3837.021.77.0317 1.1588.0317 2.905 0 5.6735-.5954 8.1901-1.6705-.592-2.3585-.1277-4.3914 1.4139-6.2058 1.3517-1.5913 3.2598-2.702 4.9442-3.682 2.0022-1.1655 3.2261-1.9269 2.9448-2.7258-.2277-.3153-.9744-1.446-.5119-2.1483.4535-.6896 1.6645-.3993 2.0626-.3041l.0139.0037 1.3556.3796c.3279-1.4688.501-2.9953.501-4.5615 0-.12-.001-.2399-.003-.3595-.3972.3786-.939.7504-1.5347.7503-.0703 0-.1417-.0051-.213-.0161-.7842-.1204-1.3903-.8961-1.8002-2.3061-.3464-1.1895-.8437-1.946-1.4794-2.2486-.5565-.2649-1.1288-.1283-1.512.0329-.1375.0738-.5328.5952-.8506 1.0143-.9505 1.2537-2.2339 2.9471-3.6054 2.9473-.0741 0-.1495-.005-.2237-.0152-.8268-.1135-1.4884-.8265-2.022-2.18z" fill="#90caf9"/><path id="_350827632" d="m36.6049 31.688c-3.1912 1.8574-7.1406 4.1558-6.0342 8.9132 5.5407-2.6149 9.756-7.593 11.3376-13.6259l-1.374-.3849c-1.0706-.2556-1.237-.0256-1.2439-.0156-.1217.1854.1782.8613.5188 1.3188.019.0254.0347.0532.0466.0823.6052 1.4679-1.1813 2.5079-3.2509 3.7121z" fill="#a5d6a7"/></g></g></svg>