<svg id="Layer_1" enable-background="new 0 0 500 500" viewBox="0 0 500 500" xmlns="http://www.w3.org/2000/svg"><g><path d="m268.63 355.294c-113.792 0-206.368-92.576-206.368-206.368v-19.104c0-2.922 1.506-5.64 3.984-7.189 2.478-1.551 5.583-1.713 8.207-.43l39.193 19.104c2.914 1.419 4.763 4.377 4.763 7.619 0 82.833 67.388 150.22 150.22 150.22s150.223-67.388 150.223-150.22c0-4.682 3.794-8.477 8.478-8.477h39.193c4.682 0 8.477 3.795 8.477 8.477 0 113.792-92.576 206.368-206.37 206.368zm-189.414-211.908v5.541c0 104.442 84.972 189.414 189.414 189.414 101.6 0 184.774-80.416 189.228-180.936h-22.264c-4.426 88.257-77.625 158.697-166.964 158.697-90.391 0-164.258-72.12-167.092-161.835z"/><path d="m174.102 185.264c-1.173 0-2.365-.245-3.502-.762l-140.628-63.891c-4.261-1.937-6.148-6.962-4.212-11.226 1.941-4.261 6.973-6.14 11.226-4.211l132.91 60.384 7.622-16.778-147.546-67.031c-4.261-1.937-6.148-6.962-4.212-11.226 1.941-4.261 6.963-6.137 11.226-4.211l155.264 70.539c2.045.93 3.64 2.635 4.429 4.741.789 2.105.712 4.437-.218 6.485l-14.637 32.215c-1.419 3.123-4.499 4.972-7.722 4.972z"/><path d="m222.418 265.659c-.565 0-1.142-.057-1.719-.176-4.587-.946-7.536-5.431-6.592-10.014 13.588-65.917-29.003-102.872-30.821-104.415-3.566-3.019-4.027-8.361-1.019-11.935 3.008-3.582 8.334-4.05 11.916-1.051 2.138 1.788 52.221 44.707 36.531 120.823-.828 4.009-4.357 6.768-8.296 6.768z"/><path d="m338.349 270.398c-1.242 0-2.5-.273-3.692-.853-4.214-2.042-5.972-7.111-3.93-11.325.657-1.793-.439-10.519-6.97-19.192-3.24-4.299-10.116-11.377-19.836-10.674-10.108.743-19.488-2.803-27.236-10.287-15.746-15.21-23.878-46.332-22.308-85.382.392-9.73-1.932-17.026-7.101-22.3-13.883-14.167-47.461-13.485-74.455-12.939-8.221.166-15.994.328-23.023.102-46.818-1.468-57.296-32.325-57.721-33.636-1.435-4.456 1.013-9.233 5.467-10.671 4.418-1.429 9.162.974 10.64 5.376.378 1.051 7.97 20.914 42.143 21.988 6.59.193 14.151.052 22.15-.111 31.828-.637 67.893-1.374 86.903 18.023 8.502 8.673 12.517 20.396 11.938 34.847-1.358 33.724 5.052 60.829 17.142 72.507 4.297 4.147 8.955 5.965 14.189 5.58 13.855-1.041 27.046 6.087 36.205 19.556 6.719 9.882 11.818 24.929 7.124 34.61-1.458 3.021-4.484 4.781-7.629 4.781z"/><path d="m326.13 447.172c-4.682 0-8.477-3.794-8.477-8.477v-89.29c-32.041 7.821-65.997 7.821-98.043 0v89.29c0 4.683-3.794 8.477-8.477 8.477s-8.477-3.794-8.477-8.477v-100.391c0-2.685 1.272-5.21 3.428-6.808 2.155-1.603 4.951-2.089 7.509-1.305 35.681 10.812 74.4 10.812 110.08 0 2.561-.784 5.351-.298 7.509 1.305 2.155 1.598 3.428 4.122 3.428 6.808v100.391c-.003 4.683-3.797 8.477-8.48 8.477z"/></g></svg>