<svg id="Layer_1" enable-background="new 0 0 500 500" viewBox="0 0 500 500" xmlns="http://www.w3.org/2000/svg"><g><path d="m167.508 419.494c-78.579 0-142.508-63.931-142.508-142.511 0-4.926 3.992-8.917 8.918-8.917h36.519c4.927 0 8.918 3.991 8.918 8.917 0 48.607 39.547 88.154 88.154 88.154s88.154-39.547 88.154-88.154c0-4.926 3.991-8.917 8.918-8.917h36.52c4.926 0 8.917 3.991 8.917 8.917-.001 78.58-63.93 142.511-142.51 142.511zm-124.356-133.593c4.59 64.599 58.611 115.758 124.357 115.758s119.767-51.159 124.357-115.758h-18.739c-4.543 54.285-50.177 97.072-105.618 97.072s-101.075-42.787-105.618-97.072z"/><path d="m282.128 354.555c-2.087 0-4.183-.729-5.875-2.212-3.704-3.248-4.073-8.88-.827-12.584l165.483-188.756c10.636-18.662 16.256-39.936 16.256-61.58 0-4.926 3.992-8.917 8.918-8.917s8.917 3.991 8.917 8.917c0 25.058-6.595 49.702-19.075 71.268-.29.502-.63.976-1.013 1.41l-166.075 189.415c-1.762 2.012-4.229 3.039-6.709 3.039z"/><path d="m301.099 285.901h-267.181c-3.504 0-6.683-2.053-8.126-5.243-1.443-3.193-.885-6.935 1.428-9.565l164.981-187.56c1.695-1.924 4.133-3.027 6.697-3.027h267.185c3.503 0 6.682 2.052 8.125 5.242 1.443 3.194.886 6.936-1.428 9.565l-164.984 187.559c-1.695 1.926-4.133 3.029-6.697 3.029zm-247.458-17.836h243.426l149.293-169.724h-243.43z"/><path d="m106.437 285.901c-2.094 0-4.192-.732-5.888-2.22-3.699-3.255-4.058-8.889-.807-12.588l7.852-8.926c3.26-3.693 8.895-4.049 12.588-.808 3.698 3.255 4.058 8.889.807 12.588l-7.853 8.926c-1.765 2.003-4.226 3.028-6.699 3.028z"/><path d="m140.984 246.624c-2.093 0-4.191-.732-5.887-2.221-3.699-3.254-4.059-8.889-.808-12.587l13.348-15.174c3.264-3.692 8.889-4.05 12.588-.807 3.699 3.254 4.058 8.889.807 12.588l-13.348 15.174c-1.764 2.002-4.227 3.027-6.7 3.027zm40.043-45.524c-2.093 0-4.192-.731-5.887-2.221-3.698-3.254-4.058-8.889-.807-12.588l13.348-15.174c3.26-3.692 8.891-4.05 12.587-.807 3.698 3.254 4.058 8.889.808 12.588l-13.348 15.174c-1.765 2.003-4.227 3.028-6.701 3.028z"/><path d="m221.071 155.579c-2.093 0-4.192-.732-5.888-2.221-3.698-3.254-4.058-8.888-.807-12.587l7.852-8.927c3.26-3.692 8.892-4.049 12.588-.807 3.699 3.254 4.058 8.889.807 12.588l-7.852 8.926c-1.766 2.003-4.227 3.028-6.7 3.028z"/><path d="m215.218 285.901c-2.093 0-4.192-.732-5.887-2.22-3.699-3.255-4.059-8.889-.807-12.588l7.852-8.926c3.26-3.693 8.891-4.049 12.587-.808 3.699 3.255 4.058 8.889.808 12.588l-7.853 8.926c-1.765 2.003-4.226 3.028-6.7 3.028z"/><path d="m249.766 246.624c-2.093 0-4.192-.732-5.888-2.221-3.698-3.254-4.058-8.889-.807-12.587l13.348-15.174c3.257-3.692 8.889-4.05 12.588-.807 3.699 3.254 4.059 8.889.807 12.588l-13.348 15.174c-1.765 2.002-4.227 3.027-6.7 3.027zm40.043-45.524c-2.093 0-4.191-.731-5.887-2.221-3.699-3.254-4.059-8.889-.807-12.588l13.348-15.174c3.263-3.692 8.891-4.05 12.587-.807 3.699 3.254 4.058 8.889.807 12.588l-13.348 15.174c-1.764 2.003-4.226 3.028-6.7 3.028z"/><path d="m329.853 155.579c-2.093 0-4.192-.732-5.888-2.221-3.698-3.254-4.058-8.888-.807-12.587l7.852-8.927c3.26-3.692 8.892-4.049 12.588-.807 3.698 3.254 4.059 8.889.807 12.588l-7.852 8.926c-1.765 2.003-4.227 3.028-6.7 3.028z"/></g></svg>