<svg id="Layer_1" enable-background="new 0 0 500 500" viewBox="0 0 500 500" xmlns="http://www.w3.org/2000/svg"><g><path d="m265.168 413.661h-210.397c-4.011 0-7.261-3.25-7.261-7.261v-162.774c0-4.011 3.25-7.261 7.261-7.261h210.398c4.011 0 7.261 3.25 7.261 7.261v162.774c-.001 4.011-3.251 7.261-7.262 7.261zm-203.136-14.521h195.877v-148.254h-195.877z"/><path d="m203.047 413.661h-86.152c-4.01 0-7.261-3.25-7.261-7.261v-119.915c0-4.011 3.251-7.261 7.261-7.261h86.152c4.011 0 7.261 3.25 7.261 7.261v119.915c0 4.011-3.25 7.261-7.261 7.261zm-78.891-14.521h71.631v-105.395h-71.631z"/><path d="m287.682 250.886h-255.422c-3.221 0-6.055-2.121-6.965-5.212-.909-3.086.326-6.409 3.034-8.15l127.708-82.252c2.394-1.543 5.468-1.543 7.862 0l127.712 82.252c2.708 1.741 3.942 5.059 3.034 8.15s-3.742 5.212-6.963 5.212zm-230.739-14.521h206.056l-103.03-66.353z"/><path d="m445.227 413.661h-180.059c-4.01 0-7.26-3.25-7.26-7.261v-162.774c0-4.011 3.25-7.261 7.26-7.261h180.058c4.01 0 7.26 3.25 7.26 7.261v162.774c0 4.011-3.25 7.261-7.259 7.261zm-172.798-14.521h165.537v-148.254h-165.537z"/><path d="m397.819 370.802h-85.239c-4.01 0-7.26-3.251-7.26-7.261v-77.056c0-4.011 3.25-7.261 7.26-7.261h85.239c4.01 0 7.26 3.25 7.26 7.261v77.056c-.001 4.01-3.251 7.261-7.26 7.261zm-77.979-14.522h70.718v-62.536h-70.718z"/><path d="m467.739 250.886h-180.057c-1.396 0-2.76-.402-3.931-1.156l-127.712-82.252c-2.708-1.742-3.942-5.06-3.034-8.152.91-3.092 3.744-5.212 6.965-5.212h137.886c4.01 0 7.26 3.25 7.26 7.261 0 4.01-3.25 7.26-7.26 7.26h-113.204l105.165 67.732h153.242l-50.593-32.586c-3.372-2.173-4.344-6.665-2.172-10.034s6.668-4.34 10.034-2.172l71.342 45.95c2.709 1.741 3.942 5.065 3.034 8.15-.91 3.09-3.743 5.211-6.965 5.211z"/><path d="m310.436 137.624c-5.851 0-11.73-1.985-16.537-6.046-5.235-4.425-8.435-10.624-9.008-17.448-.573-6.83 1.549-13.477 5.973-18.707 9.135-10.805 25.351-12.161 36.151-3.04 10.806 9.133 12.17 25.349 3.037 36.155-5.067 5.994-12.319 9.086-19.616 9.086zm.031-36.773c-3.168 0-6.314 1.34-8.515 3.943-1.919 2.274-2.841 5.155-2.591 8.117.249 2.966 1.636 5.654 3.907 7.572 4.694 3.965 11.727 3.375 15.696-1.316 3.962-4.691 3.369-11.73-1.319-15.689-2.087-1.765-4.64-2.627-7.178-2.627z"/><path d="m387.444 250.886c-8.851 0-16.5-6.67-17.51-15.66l-5.258-46.989c-.579-.397-1.132-.817-1.665-1.271l-3.981-3.363c-.716 1.049-1.555 2.019-2.516 2.899l-17.559 15.995c-1.75 1.599-3.783 2.779-6.035 3.506-6.131 1.979-12.89.175-17.231-4.578-2.97-3.256-4.49-7.47-4.285-11.866.204-4.396 2.107-8.452 5.36-11.412l14.855-13.534 1.58-3.772c-5.369-7.674-5.134-18.14 1.091-25.508 7.437-8.803 20.649-9.909 29.461-2.479l26.248 22.179c5.003 4.231 7.723 8.939 8.086 13.999.774 4.599 2.302 17.998 6.889 62.325.924 8.242-4.166 16.121-12.107 18.679-1.098.357-2.252.607-3.452.743-.661.073-1.319.107-1.971.107zm-31.027-86.256c1.699 0 3.36.596 4.685 1.713l11.281 9.535c.523.442 1.101.788 1.779 1.054 2.487.993 4.226 3.274 4.524 5.939l5.678 50.738c.193 1.702 1.764 2.921 3.434 2.74.208-.023.414-.068.61-.131 1.401-.454 2.294-1.838 2.13-3.301-2.264-21.878-6.044-57.476-6.73-61.577-.104-.414-.173-.834-.204-1.265-.071-.969-1.158-2.41-2.978-3.954l-26.245-22.172c-2.695-2.27-6.727-1.929-8.996.754-2.272 2.689-1.935 6.727.757 8.996 2.419 2.048 3.44 5.604 2.215 8.525l-3.965 9.472c-.408.975-1.024 1.855-1.806 2.564l-16.044 14.617c-.493.449-.615.987-.633 1.356-.02.368.057.913.505 1.406.624.686 1.492.721 2.054.538.255-.079.493-.221.703-.409l17.556-15.995c.207-.193.368-.42.476-.675l2.518-6.013c.891-2.133 2.749-3.716 4.998-4.254.561-.134 1.131-.201 1.698-.201z"/><path d="m355.904 180.375c-.933 0-1.883-.182-2.799-.562-3.698-1.548-5.443-5.802-3.897-9.501l5.562-13.295c1.545-3.705 5.796-5.446 9.501-3.898 3.698 1.549 5.442 5.803 3.897 9.501l-5.562 13.296c-1.166 2.786-3.864 4.459-6.702 4.459z"/><path d="m289.088 193.58h-38.474c-4.011 0-7.261-3.25-7.261-7.261 0-4.01 3.25-7.26 7.261-7.26h38.474c4.01 0 7.261 3.25 7.261 7.26 0 4.011-3.251 7.261-7.261 7.261z"/><path d="m337.954 209.757h-34.416c-4.01 0-7.26-3.25-7.26-7.261 0-4.01 3.25-7.26 7.26-7.26h34.416c4.011 0 7.261 3.25 7.261 7.26 0 4.011-3.25 7.261-7.261 7.261z"/><path d="m340.226 232.542h-19.481c-4.01 0-7.26-3.25-7.26-7.261 0-4.01 3.25-7.26 7.26-7.26h19.481c4.011 0 7.261 3.25 7.261 7.26-.001 4.011-3.251 7.261-7.261 7.261z"/></g></svg>