<svg xmlns="http://www.w3.org/2000/svg" version="1.1" xmlns:xlink="http://www.w3.org/1999/xlink" width="512" height="512" x="0" y="0" viewBox="0 0 512 512" style="enable-background:new 0 0 512 512" xml:space="preserve" class=""><g><path fill="#ffffff" fill-rule="evenodd" d="M54.658 57.726a249.1 249.1 0 0 0 99.22 13.4c40.354-2.738 76.871-14.861 106.419-35.22 29.547 20.359 66.06 32.482 106.419 35.22a249.049 249.049 0 0 0 99.22-13.4v51.763C461.3 344.751 380.608 428.334 260.3 478.7c-120.315-50.366-201-133.949-205.642-369.211zm-15.171 204.83c10.12 43.787 24.638 80.8 44.389 113.163 36.532 59.862 90.684 102.789 170.411 135.111a16.008 16.008 0 0 0 12.02 0c79.731-32.322 133.879-75.249 170.41-135.111 19.752-32.36 34.27-69.376 44.39-113.163 10.172-44.033 15.679-93.948 16.822-152.6.009-.1.009-.207.009-.311V33.694A16 16 0 0 0 474.9 19.323C408.547 51.81 322.5 45.155 270.276 3.493a16 16 0 0 0-19.958 0C198.1 45.155 112.041 51.81 45.694 19.323A16 16 0 0 0 22.66 33.694v76.266c1.148 58.648 6.655 108.563 16.827 152.596z" opacity="1" data-original="#ffc107" class=""></path></g></svg>